<?xml version="1.0" encoding="utf-8"?>
<!-- Generator: Adobe Illustrator 21.0.0, SVG Export Plug-In . SVG Version: 6.00 Build 0)  -->
<svg version="1.1" id="Layer_1" xmlns="http://www.w3.org/2000/svg" xmlns:xlink="http://www.w3.org/1999/xlink" x="0px" y="0px"
	 viewBox="0 0 48.6 53.4" style="enable-background:new 0 0 48.6 53.4;" xml:space="preserve">
<style type="text/css">
	.st0{fill:#0073B8;}
	.st1{fill:#FFFFFF;}
</style>
<path class="st0" d="M0,17.3c0-2.6,1.8-5.7,4-7L20.3,1c2.2-1.3,5.9-1.3,8.1,0l16.2,9.4c2.2,1.3,4.1,4.4,4.1,7v18.7
	c0,2.6-1.8,5.7-4.1,7l-16.2,9.4c-2.2,1.3-5.9,1.3-8.1,0L4,43.1c-2.2-1.3-4-4.4-4-7V17.3z"/>
<path class="st1" d="M35.3,17.2c1.5,0,2.7-1,2.7-2.3c0-1.3-1.2-2.3-2.7-2.3c-1.5,0-2.7,1-2.7,2.3C32.7,16.1,33.9,17.2,35.3,17.2
	 M35.3,18.6c-1.4,0-2.5,1.1-2.5,2.5v12.3c0,1.4,1.1,2.5,2.5,2.5c1.4,0,2.5-1.1,2.5-2.5V21C37.8,19.7,36.7,18.6,35.3,18.6"/>
<path class="st1" d="M20.8,18.6c-2.1,0-4,1-5.3,2.6V21c0-1.4-1.1-2.5-2.5-2.5s-2.5,1.1-2.5,2.5v17.3c0,1.4,1.1,2.5,2.5,2.5
	s2.5-1.1,2.5-2.5v-4.9c1.4,1.6,3.2,2.6,5.3,2.6c4.1,0,7.5-3.9,7.5-8.7C28.3,22.5,24.9,18.6,20.8,18.6 M19.4,31.9
	c-2.3,0-4.1-2.1-4.1-4.7c0-2.6,1.8-4.7,4.1-4.7c2.3,0,4.1,2.1,4.1,4.7C23.5,29.8,21.6,31.9,19.4,31.9"/>
</svg>
